REM DIRINDEX 1\2,1\3,1\4,1\5
REM DIRNAME cjc006,folder01,folder02,folder03,folder04
TITLE ""
FILE "No04179.mp3" MP3
  TRACK 01 AUDIO
    TITLE "3:cjc006_05696"
    INDEX 01 00:00:00
  TRACK 02 AUDIO
    TITLE "0:"
    INDEX 01 00:03:10
  TRACK 03 AUDIO
    TITLE "5:cjc006_05697"
    INDEX 01 00:03:74
  TRACK 04 AUDIO
    TITLE "0:"
    INDEX 01 00:04:64
  TRACK 05 AUDIO
    TITLE "4:cjc006_05698"
    INDEX 01 00:05:44
  TRACK 06 AUDIO
    TITLE "0:"
    INDEX 01 00:08:64
